M48
METRIC,LZ,000.000
;FILE_FORMAT=3:3
;TYPE=PLATED
;Layer: PTH_Through
;EasyEDA v6.4.31, 2022-01-29 23:58:21
;f8a1f9972e504da7969cdc8d593e69ee,00a5ad12733442db97615573759eb5db,10
;Gerber Generator version 0.2
;Holesize 1 = 0.800 mm
T01C0.800
;Holesize 2 = 0.889 mm
T02C0.889
;Holesize 3 = 0.901 mm
T03C0.901
;Holesize 4 = 0.915 mm
T04C0.915
;Holesize 5 = 1.000 mm
T05C1.000
;Holesize 6 = 1.101 mm
T06C1.101
;Holesize 7 = 1.200 mm
T07C1.200
%
G05
G90
T01
X021475Y011811
X022975Y011811
T02
X002032Y002286
X004572Y002286
X007112Y002286
X009652Y002286
X012192Y002286
T03
X019431Y037445
X019431Y034945
X003048Y014191
X003048Y006891
X005588Y014064
X005588Y006764
X014064Y029972
X006764Y029972
X022987Y031148
X022987Y038448
X001905Y017305
X001905Y024605
X005080Y017305
X005080Y024605
X014064Y033020
X006764Y033020
T04
X019304Y029337
X019304Y031877
X001651Y028067
X004191Y028067
X001651Y034290
X004191Y034290
X022972Y006350
X020970Y006350
T05
X010454Y026035
X015454Y026035
T06
X009144Y023114
X009144Y020574
X016764Y020574
X016764Y023114
X009144Y018034
X009144Y015494
X016764Y018034
X016764Y015494
X015240Y037211
X012700Y037211
X010160Y037211
T07
X021209Y024130
X021209Y021590
X021209Y019050
X014732Y002286
X017272Y002286
M30
