G04 Layer: BottomLayer*
G04 EasyEDA v6.4.31, 2022-01-29 23:58:21*
G04 f8a1f9972e504da7969cdc8d593e69ee,00a5ad12733442db97615573759eb5db,10*
G04 Gerber Generator version 0.2*
G04 Scale: 100 percent, Rotated: No, Reflected: No *
G04 Dimensions in millimeters *
G04 leading zeros omitted , absolute positions ,4 integer and 5 decimal *
%FSLAX45Y45*%
%MOMM*%

%ADD10C,0.2540*%
%ADD11C,0.5000*%
%ADD12C,1.6000*%
%ADD13C,1.8000*%
%ADD14R,1.8000X1.5748*%
%ADD15C,1.5240*%
%ADD16C,1.5748*%
%ADD17R,1.5748X1.5748*%
%ADD18R,1.8000X1.8000*%
%ADD19C,1.2000*%
%ADD20C,0.6000*%

%LPD*%
G36*
X840384Y25908D02*
G01*
X836371Y26720D01*
X832967Y29108D01*
X830834Y32664D01*
X830275Y36728D01*
X831342Y40690D01*
X833932Y43942D01*
X840435Y49276D01*
X919175Y127965D01*
X922274Y130098D01*
X925931Y130962D01*
X929640Y130403D01*
X938123Y127558D01*
X951534Y124866D01*
X965200Y123952D01*
X978865Y124866D01*
X992276Y127558D01*
X1005230Y131927D01*
X1017524Y137972D01*
X1028903Y145592D01*
X1039164Y154635D01*
X1048207Y164896D01*
X1055827Y176276D01*
X1061872Y188569D01*
X1066241Y201523D01*
X1068933Y214934D01*
X1069848Y228600D01*
X1068933Y242265D01*
X1066241Y255676D01*
X1061872Y268630D01*
X1055827Y280924D01*
X1048207Y292303D01*
X1039164Y302564D01*
X1028903Y311607D01*
X1017524Y319227D01*
X1005230Y325272D01*
X992276Y329641D01*
X978865Y332333D01*
X965200Y333248D01*
X951534Y332333D01*
X938123Y329641D01*
X925169Y325272D01*
X912876Y319227D01*
X901496Y311607D01*
X891235Y302564D01*
X882192Y292303D01*
X874572Y280924D01*
X868527Y268630D01*
X864158Y255676D01*
X861466Y242265D01*
X860552Y228600D01*
X861466Y214934D01*
X864158Y201523D01*
X867003Y193040D01*
X867562Y189331D01*
X866698Y185674D01*
X864565Y182575D01*
X799795Y117805D01*
X796493Y115570D01*
X792581Y114808D01*
X760069Y114808D01*
X755700Y115824D01*
X753516Y117500D01*
X750671Y115570D01*
X746760Y114808D01*
X675640Y114808D01*
X671728Y115570D01*
X668883Y117500D01*
X666699Y115824D01*
X662330Y114808D01*
X506069Y114808D01*
X501700Y115824D01*
X498144Y118618D01*
X496163Y122682D01*
X496163Y127152D01*
X498093Y131216D01*
X501599Y134061D01*
X509524Y137972D01*
X520903Y145592D01*
X531164Y154635D01*
X540207Y164896D01*
X547827Y176276D01*
X553872Y188569D01*
X558241Y201523D01*
X560933Y214934D01*
X561848Y228600D01*
X560933Y242265D01*
X558241Y255676D01*
X553872Y268630D01*
X547827Y280924D01*
X540207Y292303D01*
X531164Y302564D01*
X520903Y311607D01*
X509524Y319227D01*
X497230Y325272D01*
X484276Y329641D01*
X470865Y332333D01*
X457200Y333248D01*
X443534Y332333D01*
X430123Y329641D01*
X417169Y325272D01*
X404876Y319227D01*
X393496Y311607D01*
X385673Y304749D01*
X382320Y302768D01*
X378510Y302209D01*
X374751Y303123D01*
X371652Y305358D01*
X369519Y308559D01*
X368808Y312369D01*
X368808Y604926D01*
X369265Y607923D01*
X370586Y610666D01*
X382778Y623214D01*
X390855Y634187D01*
X397408Y646125D01*
X402285Y658876D01*
X405485Y672134D01*
X406806Y685698D01*
X406349Y699312D01*
X404114Y712774D01*
X400050Y725779D01*
X394309Y738174D01*
X386994Y749655D01*
X378206Y760069D01*
X368046Y769213D01*
X356819Y776935D01*
X344678Y783082D01*
X331774Y787552D01*
X318414Y790295D01*
X304800Y791159D01*
X291185Y790295D01*
X277825Y787552D01*
X264922Y783082D01*
X252780Y776935D01*
X241554Y769213D01*
X231394Y760069D01*
X222605Y749655D01*
X215290Y738174D01*
X209550Y725779D01*
X205486Y712774D01*
X203250Y699312D01*
X202793Y685698D01*
X204114Y672134D01*
X207314Y658876D01*
X212191Y646125D01*
X218744Y634187D01*
X226821Y623214D01*
X236321Y613410D01*
X247040Y604926D01*
X258775Y597966D01*
X271322Y592683D01*
X284124Y589178D01*
X287985Y587095D01*
X290626Y583641D01*
X291592Y579374D01*
X291592Y312369D01*
X290880Y308559D01*
X288747Y305358D01*
X285648Y303123D01*
X281889Y302209D01*
X278079Y302768D01*
X274726Y304749D01*
X266903Y311607D01*
X255524Y319227D01*
X243230Y325272D01*
X230276Y329641D01*
X216865Y332333D01*
X203200Y333248D01*
X189534Y332333D01*
X176123Y329641D01*
X167640Y326796D01*
X163931Y326237D01*
X160274Y327101D01*
X157175Y329234D01*
X86563Y399846D01*
X84328Y403148D01*
X83566Y407060D01*
X83566Y1409598D01*
X84328Y1413510D01*
X86563Y1416812D01*
X89814Y1418996D01*
X93726Y1419758D01*
X97637Y1418996D01*
X100888Y1416812D01*
X585622Y932078D01*
X591870Y926947D01*
X598525Y923391D01*
X605739Y921207D01*
X613765Y920394D01*
X771652Y920394D01*
X775563Y919632D01*
X778865Y917448D01*
X846937Y849376D01*
X853186Y844245D01*
X859840Y840689D01*
X867054Y838504D01*
X875080Y837692D01*
X888390Y837692D01*
X892302Y836930D01*
X895553Y834694D01*
X896772Y833526D01*
X904748Y827938D01*
X913587Y823823D01*
X918006Y822604D01*
X921918Y820572D01*
X924610Y817118D01*
X925525Y812800D01*
X924610Y808482D01*
X921918Y805027D01*
X918006Y802995D01*
X913587Y801776D01*
X904748Y797661D01*
X896772Y792073D01*
X889914Y785215D01*
X884326Y777240D01*
X881227Y770636D01*
X936345Y770636D01*
X936345Y810209D01*
X937107Y814120D01*
X939342Y817422D01*
X942644Y819607D01*
X946505Y820369D01*
X1018895Y820369D01*
X1022756Y819607D01*
X1026058Y817422D01*
X1028293Y814120D01*
X1029055Y810209D01*
X1029055Y770636D01*
X1084173Y770636D01*
X1081074Y777240D01*
X1075486Y785215D01*
X1068628Y792073D01*
X1060653Y797661D01*
X1051814Y801776D01*
X1047394Y802995D01*
X1043482Y805027D01*
X1040790Y808482D01*
X1039876Y812800D01*
X1040790Y817118D01*
X1043482Y820572D01*
X1047394Y822604D01*
X1051814Y823823D01*
X1060653Y827938D01*
X1068628Y833526D01*
X1075486Y840384D01*
X1081074Y848360D01*
X1085189Y857199D01*
X1087729Y866597D01*
X1088593Y876300D01*
X1087729Y886002D01*
X1085189Y895400D01*
X1081074Y904240D01*
X1075486Y912215D01*
X1068628Y919073D01*
X1060653Y924661D01*
X1051814Y928776D01*
X1047394Y929995D01*
X1043482Y932027D01*
X1040790Y935482D01*
X1039876Y939800D01*
X1040790Y944118D01*
X1043482Y947572D01*
X1047394Y949604D01*
X1051814Y950823D01*
X1060653Y954938D01*
X1068628Y960526D01*
X1075486Y967384D01*
X1081074Y975360D01*
X1085189Y984199D01*
X1087729Y993597D01*
X1088593Y1003300D01*
X1087729Y1013002D01*
X1085189Y1022400D01*
X1081074Y1031240D01*
X1075486Y1039215D01*
X1068628Y1046073D01*
X1060653Y1051661D01*
X1051814Y1055776D01*
X1047394Y1056995D01*
X1043482Y1059027D01*
X1040790Y1062482D01*
X1039876Y1066800D01*
X1040790Y1071118D01*
X1043482Y1074572D01*
X1047394Y1076604D01*
X1051814Y1077823D01*
X1060653Y1081938D01*
X1068628Y1087526D01*
X1075486Y1094384D01*
X1081074Y1102360D01*
X1084173Y1108964D01*
X1029055Y1108964D01*
X1029055Y1069390D01*
X1028293Y1065479D01*
X1026058Y1062177D01*
X1022756Y1059992D01*
X1018895Y1059230D01*
X946505Y1059230D01*
X942644Y1059992D01*
X939342Y1062177D01*
X937107Y1065479D01*
X936345Y1069390D01*
X936345Y1108964D01*
X888746Y1108964D01*
X884834Y1109726D01*
X881583Y1111910D01*
X879348Y1115212D01*
X878586Y1119124D01*
X878586Y1141476D01*
X879348Y1145387D01*
X881583Y1148689D01*
X884834Y1150874D01*
X888746Y1151636D01*
X936345Y1151636D01*
X936345Y1186230D01*
X931265Y1186992D01*
X927963Y1189177D01*
X925728Y1192479D01*
X924966Y1196390D01*
X925728Y1200251D01*
X927963Y1203553D01*
X1232204Y1507794D01*
X1235506Y1510030D01*
X1239418Y1510792D01*
X1560271Y1510792D01*
X1564030Y1510080D01*
X1567230Y1508048D01*
X1569466Y1504950D01*
X1574850Y1493570D01*
X1582623Y1481277D01*
X1591919Y1470050D01*
X1602536Y1460093D01*
X1614322Y1451559D01*
X1627073Y1444548D01*
X1640586Y1439164D01*
X1654708Y1435557D01*
X1669135Y1433728D01*
X1683664Y1433728D01*
X1698091Y1435557D01*
X1712214Y1439164D01*
X1725726Y1444548D01*
X1738477Y1451559D01*
X1750263Y1460093D01*
X1760880Y1470050D01*
X1770176Y1481277D01*
X1777949Y1493570D01*
X1784146Y1506728D01*
X1788668Y1520596D01*
X1791360Y1534871D01*
X1792274Y1549400D01*
X1791360Y1563928D01*
X1788668Y1578203D01*
X1784146Y1592072D01*
X1777949Y1605229D01*
X1770176Y1617522D01*
X1760880Y1628749D01*
X1750263Y1638706D01*
X1738477Y1647240D01*
X1725726Y1654251D01*
X1712214Y1659636D01*
X1698091Y1663242D01*
X1683664Y1665071D01*
X1669135Y1665071D01*
X1654708Y1663242D01*
X1640586Y1659636D01*
X1627073Y1654251D01*
X1614322Y1647240D01*
X1602536Y1638706D01*
X1591919Y1628749D01*
X1582623Y1617522D01*
X1574850Y1605229D01*
X1569466Y1593850D01*
X1567230Y1590751D01*
X1564030Y1588719D01*
X1560271Y1588008D01*
X1219708Y1588008D01*
X1211681Y1587195D01*
X1204468Y1585010D01*
X1197762Y1581454D01*
X1191564Y1576324D01*
X813053Y1197813D01*
X807923Y1191615D01*
X804367Y1184910D01*
X802182Y1177696D01*
X801370Y1169670D01*
X801370Y1115568D01*
X800608Y1111656D01*
X798372Y1108405D01*
X795121Y1106170D01*
X791210Y1105408D01*
X731418Y1105408D01*
X727506Y1106170D01*
X724204Y1108405D01*
X545388Y1287170D01*
X543204Y1290472D01*
X542442Y1294384D01*
X543204Y1298244D01*
X545388Y1301546D01*
X548690Y1303782D01*
X552602Y1304544D01*
X565607Y1304544D01*
X579120Y1306372D01*
X592277Y1309928D01*
X604824Y1315262D01*
X616559Y1322222D01*
X627278Y1330655D01*
X636778Y1340459D01*
X644855Y1351483D01*
X651408Y1363421D01*
X656285Y1376121D01*
X659485Y1389430D01*
X660806Y1402994D01*
X660349Y1416608D01*
X658114Y1430070D01*
X654050Y1443075D01*
X648309Y1455470D01*
X640994Y1466951D01*
X632206Y1477365D01*
X622046Y1486509D01*
X610819Y1494231D01*
X598678Y1500378D01*
X585774Y1504848D01*
X572414Y1507540D01*
X558800Y1508455D01*
X545185Y1507540D01*
X531825Y1504848D01*
X518922Y1500378D01*
X506780Y1494231D01*
X495554Y1486509D01*
X487375Y1479143D01*
X484073Y1477111D01*
X480212Y1476502D01*
X476453Y1477365D01*
X473252Y1479600D01*
X471170Y1482852D01*
X470408Y1486662D01*
X470408Y1574292D01*
X469595Y1582318D01*
X467410Y1589532D01*
X463854Y1596237D01*
X458724Y1602435D01*
X303733Y1757425D01*
X297535Y1762556D01*
X287274Y1767687D01*
X285038Y1769770D01*
X277012Y1784604D01*
X275793Y1788617D01*
X276301Y1792732D01*
X278434Y1796338D01*
X281838Y1798777D01*
X285902Y1799640D01*
X380034Y1799640D01*
X383895Y1798878D01*
X387197Y1796643D01*
X409346Y1774545D01*
X411530Y1771345D01*
X412292Y1767535D01*
X411632Y1763725D01*
X410514Y1760778D01*
X407314Y1747469D01*
X405993Y1733905D01*
X406450Y1720291D01*
X408686Y1706829D01*
X412750Y1693824D01*
X418490Y1681429D01*
X425805Y1669948D01*
X434593Y1659534D01*
X444754Y1650390D01*
X455980Y1642668D01*
X468122Y1636522D01*
X481025Y1632051D01*
X494385Y1629359D01*
X508000Y1628444D01*
X521614Y1629359D01*
X534974Y1632051D01*
X547878Y1636522D01*
X552450Y1638401D01*
X555294Y1638503D01*
X562559Y1637792D01*
X815848Y1637792D01*
X819556Y1637080D01*
X822756Y1635048D01*
X825042Y1631950D01*
X825957Y1628292D01*
X825500Y1624482D01*
X823671Y1621180D01*
X820623Y1617522D01*
X812850Y1605229D01*
X806653Y1592072D01*
X802132Y1578203D01*
X799439Y1563928D01*
X798525Y1549400D01*
X799439Y1534871D01*
X802132Y1520596D01*
X806653Y1506728D01*
X812850Y1493570D01*
X820623Y1481277D01*
X829919Y1470050D01*
X840536Y1460093D01*
X852322Y1451559D01*
X865073Y1444548D01*
X878586Y1439164D01*
X892708Y1435557D01*
X907135Y1433728D01*
X921664Y1433728D01*
X936091Y1435557D01*
X950214Y1439164D01*
X963726Y1444548D01*
X976477Y1451559D01*
X988263Y1460093D01*
X998880Y1470050D01*
X1008176Y1481277D01*
X1015949Y1493570D01*
X1022146Y1506728D01*
X1026668Y1520596D01*
X1029360Y1534871D01*
X1030274Y1549400D01*
X1029360Y1563928D01*
X1026668Y1578203D01*
X1022146Y1592072D01*
X1015949Y1605229D01*
X1008176Y1617522D01*
X1005128Y1621180D01*
X1003300Y1624482D01*
X1002842Y1628292D01*
X1003757Y1631950D01*
X1006043Y1635048D01*
X1009243Y1637080D01*
X1012952Y1637792D01*
X1548892Y1637792D01*
X1556918Y1638604D01*
X1564132Y1640789D01*
X1570837Y1644345D01*
X1577035Y1649475D01*
X1621688Y1694078D01*
X1624939Y1696262D01*
X1628749Y1697075D01*
X1632610Y1696364D01*
X1640586Y1693164D01*
X1654708Y1689557D01*
X1669135Y1687728D01*
X1683664Y1687728D01*
X1698091Y1689557D01*
X1712214Y1693164D01*
X1725726Y1698548D01*
X1738477Y1705559D01*
X1750263Y1714093D01*
X1760880Y1724050D01*
X1770176Y1735277D01*
X1777949Y1747570D01*
X1784146Y1760728D01*
X1788668Y1774596D01*
X1791360Y1788871D01*
X1792274Y1803400D01*
X1791360Y1817928D01*
X1788668Y1832203D01*
X1784146Y1846072D01*
X1777949Y1859229D01*
X1770176Y1871522D01*
X1760880Y1882749D01*
X1750263Y1892706D01*
X1738477Y1901240D01*
X1725726Y1908251D01*
X1712214Y1913636D01*
X1698091Y1917242D01*
X1683664Y1919071D01*
X1669135Y1919071D01*
X1654708Y1917242D01*
X1640586Y1913636D01*
X1627073Y1908251D01*
X1614322Y1901240D01*
X1602536Y1892706D01*
X1591919Y1882749D01*
X1582623Y1871522D01*
X1574850Y1859229D01*
X1568653Y1846072D01*
X1564132Y1832203D01*
X1561439Y1817928D01*
X1560525Y1803400D01*
X1561439Y1788871D01*
X1564132Y1774596D01*
X1568653Y1760728D01*
X1569923Y1756054D01*
X1569212Y1751990D01*
X1566976Y1748536D01*
X1536395Y1718005D01*
X1533093Y1715770D01*
X1529181Y1715007D01*
X1012952Y1715007D01*
X1009243Y1715719D01*
X1006043Y1717751D01*
X1003757Y1720850D01*
X1002842Y1724507D01*
X1003300Y1728317D01*
X1005128Y1731619D01*
X1008176Y1735277D01*
X1015949Y1747570D01*
X1022146Y1760728D01*
X1026668Y1774596D01*
X1029360Y1788871D01*
X1030274Y1803400D01*
X1029360Y1817928D01*
X1026668Y1832203D01*
X1022146Y1846072D01*
X1015949Y1859229D01*
X1008176Y1871522D01*
X998880Y1882749D01*
X988263Y1892706D01*
X976477Y1901240D01*
X963726Y1908251D01*
X950214Y1913636D01*
X936091Y1917242D01*
X921664Y1919071D01*
X907135Y1919071D01*
X892708Y1917242D01*
X878586Y1913636D01*
X865073Y1908251D01*
X852322Y1901240D01*
X840536Y1892706D01*
X829919Y1882749D01*
X820623Y1871522D01*
X812850Y1859229D01*
X806653Y1846072D01*
X802132Y1832203D01*
X799439Y1817928D01*
X798525Y1803400D01*
X799439Y1788871D01*
X802132Y1774596D01*
X806653Y1760728D01*
X812850Y1747570D01*
X820623Y1735277D01*
X823671Y1731619D01*
X825500Y1728317D01*
X825957Y1724507D01*
X825042Y1720850D01*
X822756Y1717751D01*
X819556Y1715719D01*
X815848Y1715007D01*
X619912Y1715007D01*
X615950Y1715820D01*
X612597Y1718106D01*
X610412Y1721510D01*
X609752Y1725523D01*
X610006Y1733905D01*
X608685Y1747469D01*
X605485Y1760778D01*
X600608Y1773478D01*
X594055Y1785416D01*
X585978Y1796440D01*
X576478Y1806244D01*
X565759Y1814677D01*
X554024Y1821637D01*
X541477Y1826971D01*
X528320Y1830527D01*
X514807Y1832356D01*
X501192Y1832356D01*
X487680Y1830527D01*
X473659Y1826666D01*
X470154Y1826361D01*
X466699Y1827275D01*
X463804Y1829307D01*
X427888Y1865172D01*
X421640Y1870303D01*
X414985Y1873859D01*
X407771Y1876043D01*
X399745Y1876856D01*
X150723Y1876856D01*
X142697Y1876043D01*
X135483Y1873859D01*
X128828Y1870303D01*
X122580Y1865172D01*
X100888Y1843532D01*
X97637Y1841296D01*
X93726Y1840534D01*
X89814Y1841296D01*
X86563Y1843532D01*
X84328Y1846834D01*
X83566Y1850694D01*
X83566Y1929739D01*
X84328Y1933651D01*
X86563Y1936953D01*
X292404Y2142794D01*
X295706Y2145030D01*
X299618Y2145792D01*
X815848Y2145792D01*
X819556Y2145080D01*
X822756Y2143048D01*
X825042Y2139950D01*
X825957Y2136292D01*
X825500Y2132482D01*
X823671Y2129180D01*
X820623Y2125522D01*
X812850Y2113229D01*
X806653Y2100072D01*
X802132Y2086203D01*
X799439Y2071928D01*
X798525Y2057400D01*
X799439Y2042871D01*
X802132Y2028596D01*
X806653Y2014728D01*
X812850Y2001570D01*
X820623Y1989277D01*
X829919Y1978050D01*
X840536Y1968093D01*
X852322Y1959559D01*
X865073Y1952548D01*
X878586Y1947164D01*
X892708Y1943557D01*
X907135Y1941728D01*
X921664Y1941728D01*
X936091Y1943557D01*
X950214Y1947164D01*
X963726Y1952548D01*
X976477Y1959559D01*
X988263Y1968093D01*
X998880Y1978050D01*
X1008176Y1989277D01*
X1015949Y2001570D01*
X1022146Y2014728D01*
X1026668Y2028596D01*
X1029360Y2042871D01*
X1030274Y2057400D01*
X1029360Y2071928D01*
X1026668Y2086203D01*
X1022146Y2100072D01*
X1015949Y2113229D01*
X1008176Y2125522D01*
X1005128Y2129180D01*
X1003300Y2132482D01*
X1002842Y2136292D01*
X1003757Y2139950D01*
X1006043Y2143048D01*
X1009243Y2145080D01*
X1012952Y2145792D01*
X1529181Y2145792D01*
X1533093Y2145030D01*
X1536395Y2142794D01*
X1566976Y2112264D01*
X1569212Y2108809D01*
X1569923Y2104745D01*
X1568653Y2100072D01*
X1564132Y2086203D01*
X1561439Y2071928D01*
X1560525Y2057400D01*
X1561439Y2042871D01*
X1564132Y2028596D01*
X1568653Y2014728D01*
X1574850Y2001570D01*
X1582623Y1989277D01*
X1591919Y1978050D01*
X1602536Y1968093D01*
X1614322Y1959559D01*
X1627073Y1952548D01*
X1640586Y1947164D01*
X1654708Y1943557D01*
X1669135Y1941728D01*
X1683664Y1941728D01*
X1698091Y1943557D01*
X1712214Y1947164D01*
X1725726Y1952548D01*
X1738477Y1959559D01*
X1750263Y1968093D01*
X1760880Y1978050D01*
X1770176Y1989277D01*
X1777949Y2001570D01*
X1784146Y2014728D01*
X1788668Y2028596D01*
X1791360Y2042871D01*
X1792274Y2057400D01*
X1791360Y2071928D01*
X1788668Y2086203D01*
X1784146Y2100072D01*
X1777949Y2113229D01*
X1770176Y2125522D01*
X1760880Y2136749D01*
X1750263Y2146706D01*
X1738477Y2155240D01*
X1725726Y2162251D01*
X1712214Y2167636D01*
X1698091Y2171242D01*
X1683664Y2173071D01*
X1669135Y2173071D01*
X1654708Y2171242D01*
X1640586Y2167636D01*
X1632610Y2164435D01*
X1628749Y2163724D01*
X1624939Y2164537D01*
X1621688Y2166721D01*
X1577035Y2211324D01*
X1570837Y2216454D01*
X1564132Y2220010D01*
X1556918Y2222195D01*
X1548892Y2223008D01*
X1012952Y2223008D01*
X1009243Y2223719D01*
X1006043Y2225751D01*
X1003757Y2228850D01*
X1002842Y2232507D01*
X1003300Y2236317D01*
X1005128Y2239619D01*
X1008176Y2243277D01*
X1015949Y2255570D01*
X1022146Y2268728D01*
X1026668Y2282596D01*
X1029360Y2296871D01*
X1030274Y2311400D01*
X1029360Y2325928D01*
X1026668Y2340203D01*
X1022146Y2354072D01*
X1015949Y2367229D01*
X1008176Y2379522D01*
X998880Y2390749D01*
X988263Y2400706D01*
X976477Y2409240D01*
X963726Y2416251D01*
X950214Y2421636D01*
X936091Y2425242D01*
X921664Y2427071D01*
X907135Y2427071D01*
X892708Y2425242D01*
X878586Y2421636D01*
X865073Y2416251D01*
X852322Y2409240D01*
X840536Y2400706D01*
X829919Y2390749D01*
X820623Y2379522D01*
X812850Y2367229D01*
X806653Y2354072D01*
X802132Y2340203D01*
X799439Y2325928D01*
X798525Y2311400D01*
X799439Y2296871D01*
X802132Y2282596D01*
X806653Y2268728D01*
X812850Y2255570D01*
X820623Y2243277D01*
X823671Y2239619D01*
X825500Y2236317D01*
X825957Y2232507D01*
X825042Y2228850D01*
X822756Y2225751D01*
X819556Y2223719D01*
X815848Y2223008D01*
X279908Y2223008D01*
X271881Y2222195D01*
X264668Y2220010D01*
X257962Y2216454D01*
X251764Y2211324D01*
X43230Y2002840D01*
X39979Y2000656D01*
X36068Y1999894D01*
X32156Y2000656D01*
X28905Y2002840D01*
X26670Y2006142D01*
X25908Y2010054D01*
X25908Y3951732D01*
X26670Y3955643D01*
X28905Y3958894D01*
X32156Y3961129D01*
X36068Y3961892D01*
X2265070Y3961892D01*
X2269134Y3961028D01*
X2272487Y3958640D01*
X2274671Y3955135D01*
X2275179Y3951020D01*
X2274062Y3947007D01*
X2271420Y3943807D01*
X2267762Y3941927D01*
X2265222Y3941216D01*
X2252675Y3935933D01*
X2240940Y3928973D01*
X2230221Y3920490D01*
X2220722Y3910685D01*
X2212644Y3899712D01*
X2206599Y3888689D01*
X2204313Y3885895D01*
X2201214Y3884066D01*
X2197709Y3883406D01*
X2043938Y3883406D01*
X2035911Y3882593D01*
X2028698Y3880408D01*
X2021992Y3876852D01*
X2015794Y3871722D01*
X1990140Y3846118D01*
X1987042Y3843985D01*
X1983384Y3843121D01*
X1979675Y3843680D01*
X1970481Y3846779D01*
X1956917Y3849471D01*
X1943100Y3850386D01*
X1929282Y3849471D01*
X1915718Y3846779D01*
X1906524Y3843680D01*
X1902815Y3843121D01*
X1899157Y3843985D01*
X1896059Y3846118D01*
X1829003Y3913124D01*
X1822805Y3918254D01*
X1816100Y3921810D01*
X1808886Y3923995D01*
X1800860Y3924808D01*
X1181608Y3924808D01*
X1173581Y3923995D01*
X1166368Y3921810D01*
X1159662Y3918254D01*
X1153464Y3913124D01*
X1070711Y3830421D01*
X1067460Y3828237D01*
X1063650Y3827424D01*
X1059789Y3828135D01*
X1051814Y3831336D01*
X1037691Y3834942D01*
X1023264Y3836771D01*
X1008735Y3836771D01*
X994308Y3834942D01*
X980186Y3831336D01*
X966673Y3825951D01*
X953922Y3818940D01*
X942136Y3810406D01*
X931519Y3800449D01*
X922223Y3789222D01*
X914450Y3776929D01*
X908253Y3763772D01*
X903732Y3749903D01*
X901039Y3735628D01*
X900125Y3721100D01*
X901039Y3706571D01*
X903732Y3692296D01*
X908253Y3678428D01*
X914450Y3665270D01*
X922223Y3652977D01*
X931519Y3641750D01*
X942136Y3631793D01*
X953922Y3623259D01*
X966673Y3616248D01*
X980186Y3610864D01*
X994308Y3607257D01*
X1008735Y3605428D01*
X1023264Y3605428D01*
X1037691Y3607257D01*
X1051814Y3610864D01*
X1065326Y3616248D01*
X1078077Y3623259D01*
X1089863Y3631793D01*
X1100480Y3641750D01*
X1109776Y3652977D01*
X1117549Y3665270D01*
X1123746Y3678428D01*
X1128268Y3692296D01*
X1130960Y3706571D01*
X1131874Y3721100D01*
X1130960Y3735628D01*
X1128268Y3749903D01*
X1123746Y3763772D01*
X1122476Y3768445D01*
X1123188Y3772509D01*
X1125423Y3775964D01*
X1194104Y3844594D01*
X1197406Y3846829D01*
X1201318Y3847592D01*
X1222044Y3847592D01*
X1225397Y3846931D01*
X1228801Y3847592D01*
X1311198Y3847592D01*
X1314602Y3846931D01*
X1317955Y3847592D01*
X1409649Y3847592D01*
X1413510Y3846829D01*
X1416812Y3844594D01*
X1419047Y3841343D01*
X1419809Y3837432D01*
X1419047Y3833520D01*
X1416812Y3830269D01*
X1413814Y3827221D01*
X1410716Y3822293D01*
X1408785Y3816858D01*
X1408074Y3810508D01*
X1408074Y3631692D01*
X1408785Y3625342D01*
X1410716Y3619906D01*
X1413814Y3614978D01*
X1417878Y3610914D01*
X1422806Y3607815D01*
X1428242Y3605885D01*
X1434592Y3605174D01*
X1613408Y3605174D01*
X1619758Y3605885D01*
X1625193Y3607815D01*
X1630121Y3610914D01*
X1634185Y3614978D01*
X1637283Y3619906D01*
X1639214Y3625342D01*
X1639925Y3631692D01*
X1639925Y3810508D01*
X1639214Y3816858D01*
X1637283Y3822293D01*
X1634185Y3827221D01*
X1631188Y3830269D01*
X1628952Y3833520D01*
X1628190Y3837432D01*
X1628952Y3841343D01*
X1631188Y3844594D01*
X1634489Y3846829D01*
X1638350Y3847592D01*
X1781149Y3847592D01*
X1785061Y3846829D01*
X1788363Y3844594D01*
X1841500Y3791508D01*
X1843582Y3788410D01*
X1844446Y3784752D01*
X1843938Y3781044D01*
X1840839Y3771900D01*
X1838096Y3758336D01*
X1837232Y3744518D01*
X1838096Y3730701D01*
X1840839Y3717086D01*
X1845259Y3703980D01*
X1851406Y3691534D01*
X1859076Y3680053D01*
X1868220Y3669639D01*
X1878634Y3660495D01*
X1890166Y3652824D01*
X1902561Y3646678D01*
X1915718Y3642207D01*
X1929282Y3639515D01*
X1943100Y3638600D01*
X1956917Y3639515D01*
X1970481Y3642207D01*
X1983638Y3646678D01*
X1996033Y3652824D01*
X2007565Y3660495D01*
X2017979Y3669639D01*
X2027123Y3680053D01*
X2034793Y3691534D01*
X2040940Y3703980D01*
X2045360Y3717086D01*
X2048103Y3730701D01*
X2048967Y3744518D01*
X2048103Y3758336D01*
X2045360Y3771900D01*
X2042261Y3781044D01*
X2041753Y3784752D01*
X2042617Y3788410D01*
X2044700Y3791508D01*
X2056434Y3803192D01*
X2059736Y3805428D01*
X2063648Y3806190D01*
X2197862Y3806190D01*
X2201621Y3805478D01*
X2204821Y3803396D01*
X2207056Y3800297D01*
X2209190Y3795725D01*
X2216505Y3784244D01*
X2225294Y3773830D01*
X2235454Y3764686D01*
X2246680Y3756964D01*
X2258822Y3750818D01*
X2271725Y3746347D01*
X2285085Y3743604D01*
X2298700Y3742690D01*
X2312314Y3743604D01*
X2325674Y3746347D01*
X2338578Y3750818D01*
X2350719Y3756964D01*
X2361946Y3764686D01*
X2372106Y3773830D01*
X2380894Y3784244D01*
X2388209Y3795725D01*
X2393950Y3808120D01*
X2398014Y3821125D01*
X2400249Y3834587D01*
X2400706Y3848201D01*
X2399385Y3861765D01*
X2396185Y3875024D01*
X2391308Y3887774D01*
X2384755Y3899712D01*
X2376678Y3910685D01*
X2367178Y3920490D01*
X2356459Y3928973D01*
X2344724Y3935933D01*
X2332177Y3941216D01*
X2329637Y3941927D01*
X2325979Y3943807D01*
X2323338Y3947007D01*
X2322220Y3951020D01*
X2322728Y3955135D01*
X2324912Y3958640D01*
X2328265Y3961028D01*
X2332329Y3961892D01*
X2503932Y3961892D01*
X2507843Y3961129D01*
X2511094Y3958894D01*
X2513330Y3955643D01*
X2514092Y3951732D01*
X2514092Y36068D01*
X2513330Y32156D01*
X2511094Y28905D01*
X2507843Y26670D01*
X2503932Y25908D01*
X1950923Y25908D01*
X1947011Y26670D01*
X1943709Y28905D01*
X1941525Y32156D01*
X1940763Y36068D01*
X1941525Y39979D01*
X1949043Y50749D01*
X1952802Y58826D01*
X1955088Y67360D01*
X1955901Y76657D01*
X1955901Y660196D01*
X1955698Y664819D01*
X1955139Y669239D01*
X1954174Y673557D01*
X1952853Y677824D01*
X1951126Y681888D01*
X1949094Y685850D01*
X1946706Y689610D01*
X1944014Y693115D01*
X1940864Y696569D01*
X1725269Y912164D01*
X1721815Y915314D01*
X1718310Y918006D01*
X1714550Y920394D01*
X1710588Y922426D01*
X1706524Y924153D01*
X1702257Y925474D01*
X1697939Y926439D01*
X1693519Y926998D01*
X1688896Y927201D01*
X1657451Y927201D01*
X1653184Y928166D01*
X1647393Y929995D01*
X1643481Y932027D01*
X1640789Y935482D01*
X1639874Y939800D01*
X1640789Y944118D01*
X1643481Y947572D01*
X1647393Y949604D01*
X1653184Y951433D01*
X1657451Y952398D01*
X2119477Y952398D01*
X2124151Y952601D01*
X2128520Y953160D01*
X2132888Y954125D01*
X2137105Y955446D01*
X2141220Y957173D01*
X2145131Y959205D01*
X2148890Y961593D01*
X2152446Y964285D01*
X2155850Y967435D01*
X2281275Y1092860D01*
X2284882Y1095197D01*
X2289149Y1095806D01*
X2297480Y1095197D01*
X2309723Y1096111D01*
X2321712Y1098702D01*
X2333193Y1102969D01*
X2343912Y1108862D01*
X2353767Y1116177D01*
X2362403Y1124864D01*
X2369769Y1134668D01*
X2375611Y1145438D01*
X2379929Y1156919D01*
X2382520Y1168857D01*
X2383383Y1181100D01*
X2382520Y1193342D01*
X2379929Y1205280D01*
X2375662Y1216710D01*
X2375001Y1220266D01*
X2375001Y1955596D01*
X2374798Y1960219D01*
X2374239Y1964639D01*
X2373274Y1968957D01*
X2371953Y1973224D01*
X2370226Y1977288D01*
X2368194Y1981250D01*
X2365806Y1985010D01*
X2363114Y1988515D01*
X2359964Y1991969D01*
X2234742Y2117191D01*
X2232710Y2120036D01*
X2231796Y2123389D01*
X2232050Y2126894D01*
X2234742Y2137308D01*
X2236571Y2151735D01*
X2236571Y2166264D01*
X2234742Y2180691D01*
X2231136Y2194814D01*
X2225751Y2208326D01*
X2218740Y2221077D01*
X2210206Y2232863D01*
X2200249Y2243480D01*
X2189022Y2252776D01*
X2176729Y2260549D01*
X2163572Y2266746D01*
X2149703Y2271268D01*
X2135428Y2273960D01*
X2120900Y2274874D01*
X2106371Y2273960D01*
X2092096Y2271268D01*
X2089353Y2270353D01*
X2085695Y2269896D01*
X2082088Y2270760D01*
X2079040Y2272842D01*
X2059736Y2292146D01*
X2057501Y2295550D01*
X2056739Y2299512D01*
X2057603Y2303424D01*
X2059939Y2306726D01*
X2063343Y2308860D01*
X2067306Y2309520D01*
X2071217Y2308555D01*
X2078228Y2305253D01*
X2092096Y2300732D01*
X2106371Y2298039D01*
X2120900Y2297125D01*
X2135428Y2298039D01*
X2149703Y2300732D01*
X2163572Y2305253D01*
X2176729Y2311450D01*
X2189022Y2319223D01*
X2200249Y2328519D01*
X2210206Y2339136D01*
X2218740Y2350922D01*
X2225751Y2363673D01*
X2231136Y2377186D01*
X2234742Y2391308D01*
X2236571Y2405735D01*
X2236571Y2420264D01*
X2234742Y2434691D01*
X2231136Y2448814D01*
X2225751Y2462326D01*
X2218740Y2475077D01*
X2210206Y2486863D01*
X2200249Y2497480D01*
X2189022Y2506776D01*
X2176729Y2514549D01*
X2163572Y2520746D01*
X2149703Y2525268D01*
X2135428Y2527960D01*
X2120900Y2528874D01*
X2106371Y2527960D01*
X2092096Y2525268D01*
X2078228Y2520746D01*
X2065070Y2514549D01*
X2052777Y2506776D01*
X2041550Y2497480D01*
X2031593Y2486863D01*
X2023059Y2475077D01*
X2016048Y2462326D01*
X2010664Y2448814D01*
X2007057Y2434691D01*
X2005228Y2420264D01*
X2005228Y2405735D01*
X2007057Y2391308D01*
X2010664Y2377186D01*
X2016201Y2363266D01*
X2016912Y2359355D01*
X2016099Y2355494D01*
X2013864Y2352243D01*
X2010562Y2350109D01*
X2006701Y2349347D01*
X2002840Y2350109D01*
X1999589Y2352344D01*
X1850999Y2500884D01*
X1847596Y2504033D01*
X1844039Y2506726D01*
X1840280Y2509113D01*
X1836369Y2511196D01*
X1832254Y2512872D01*
X1828038Y2514193D01*
X1823669Y2515158D01*
X1819300Y2515768D01*
X1814626Y2515971D01*
X1631543Y2515971D01*
X1627784Y2516682D01*
X1624533Y2518765D01*
X1622298Y2521915D01*
X1621434Y2525674D01*
X1621993Y2529484D01*
X1623923Y2532786D01*
X1629410Y2539034D01*
X1637080Y2550566D01*
X1640332Y2557170D01*
X1591716Y2557170D01*
X1591716Y2526131D01*
X1590954Y2522220D01*
X1588770Y2518918D01*
X1585468Y2516733D01*
X1581556Y2515971D01*
X1509217Y2515971D01*
X1505305Y2516733D01*
X1502003Y2518918D01*
X1499819Y2522220D01*
X1499057Y2526131D01*
X1499057Y2557170D01*
X1450441Y2557170D01*
X1453692Y2550566D01*
X1461363Y2539034D01*
X1466850Y2532786D01*
X1468780Y2529484D01*
X1469339Y2525674D01*
X1468475Y2521915D01*
X1466240Y2518765D01*
X1462989Y2516682D01*
X1459230Y2515971D01*
X1209141Y2515971D01*
X1205280Y2516733D01*
X1201978Y2518918D01*
X1151026Y2569870D01*
X1149096Y2572562D01*
X1148130Y2575712D01*
X1148232Y2579065D01*
X1150366Y2589682D01*
X1151280Y2603500D01*
X1150366Y2617317D01*
X1147673Y2630881D01*
X1143203Y2644038D01*
X1137107Y2656433D01*
X1129385Y2667965D01*
X1120241Y2678379D01*
X1109827Y2687523D01*
X1098346Y2695194D01*
X1085900Y2701340D01*
X1072794Y2705760D01*
X1059230Y2708503D01*
X1045413Y2709367D01*
X1041349Y2709113D01*
X1037082Y2709773D01*
X1033475Y2712059D01*
X778814Y2966770D01*
X776884Y2969463D01*
X775919Y2972663D01*
X776020Y2975965D01*
X777595Y2983585D01*
X778510Y2997200D01*
X777595Y3010814D01*
X774852Y3024174D01*
X770382Y3037078D01*
X764235Y3049219D01*
X756513Y3060446D01*
X747369Y3070606D01*
X736955Y3079394D01*
X725474Y3086709D01*
X713079Y3092450D01*
X700074Y3096514D01*
X686612Y3098749D01*
X672998Y3099206D01*
X659434Y3097885D01*
X646176Y3094685D01*
X633425Y3089808D01*
X621487Y3083255D01*
X610514Y3075178D01*
X600710Y3065678D01*
X592226Y3054959D01*
X591108Y3053080D01*
X588873Y3050438D01*
X585825Y3048711D01*
X582371Y3048101D01*
X380898Y3048101D01*
X376986Y3048863D01*
X373735Y3051098D01*
X218998Y3205835D01*
X216763Y3209086D01*
X216001Y3212998D01*
X216001Y3335070D01*
X216560Y3338423D01*
X218186Y3341370D01*
X220725Y3343656D01*
X225653Y3346805D01*
X236067Y3355594D01*
X245211Y3365754D01*
X252933Y3376980D01*
X259079Y3389122D01*
X263550Y3402025D01*
X266293Y3415385D01*
X267208Y3429000D01*
X266293Y3442614D01*
X263550Y3455974D01*
X259079Y3468878D01*
X252933Y3481019D01*
X245211Y3492246D01*
X236067Y3502406D01*
X225653Y3511194D01*
X214172Y3518509D01*
X201777Y3524250D01*
X188772Y3528314D01*
X175310Y3530549D01*
X161696Y3531006D01*
X148132Y3529685D01*
X134874Y3526485D01*
X122123Y3521608D01*
X110185Y3515055D01*
X99212Y3506978D01*
X89408Y3497478D01*
X80924Y3486759D01*
X73964Y3475024D01*
X68681Y3462477D01*
X65074Y3449320D01*
X63246Y3435807D01*
X63246Y3422192D01*
X65074Y3408679D01*
X68681Y3395522D01*
X73964Y3382975D01*
X80924Y3371240D01*
X89408Y3360521D01*
X99212Y3351022D01*
X110083Y3343046D01*
X112268Y3340811D01*
X113690Y3337966D01*
X114198Y3334867D01*
X114198Y3187903D01*
X114401Y3183280D01*
X114960Y3178860D01*
X115925Y3174542D01*
X117246Y3170275D01*
X118973Y3166211D01*
X121005Y3162249D01*
X123393Y3158490D01*
X126085Y3154984D01*
X129235Y3151530D01*
X276402Y3004362D01*
X278638Y3001111D01*
X279400Y2997200D01*
X278638Y2993288D01*
X276402Y2990037D01*
X195580Y2909163D01*
X192989Y2907284D01*
X189941Y2906318D01*
X186740Y2906369D01*
X175310Y2908249D01*
X161696Y2908706D01*
X148132Y2907385D01*
X134874Y2904185D01*
X122123Y2899308D01*
X110185Y2892755D01*
X99212Y2884678D01*
X89408Y2875178D01*
X80924Y2864459D01*
X73964Y2852724D01*
X68681Y2840177D01*
X65074Y2827020D01*
X63246Y2813507D01*
X63246Y2799892D01*
X65074Y2786380D01*
X68681Y2773222D01*
X73964Y2760675D01*
X80924Y2748940D01*
X89408Y2738221D01*
X99212Y2728722D01*
X110185Y2720644D01*
X122123Y2714091D01*
X134874Y2709214D01*
X148132Y2706014D01*
X161696Y2704693D01*
X175310Y2705150D01*
X188772Y2707386D01*
X201777Y2711450D01*
X214172Y2717190D01*
X225653Y2724505D01*
X236067Y2733294D01*
X245211Y2743454D01*
X252933Y2754680D01*
X259079Y2766822D01*
X263550Y2779725D01*
X266293Y2793085D01*
X267208Y2806700D01*
X266293Y2820314D01*
X264718Y2827883D01*
X264617Y2831236D01*
X265582Y2834386D01*
X267512Y2837129D01*
X373735Y2943301D01*
X376986Y2945536D01*
X380898Y2946298D01*
X582371Y2946298D01*
X585825Y2945688D01*
X588873Y2943961D01*
X591108Y2941320D01*
X592226Y2939440D01*
X600710Y2928721D01*
X610514Y2919222D01*
X621487Y2911144D01*
X633425Y2904591D01*
X646176Y2899714D01*
X659434Y2896514D01*
X672998Y2895193D01*
X686612Y2895650D01*
X697992Y2897530D01*
X701192Y2897581D01*
X704291Y2896616D01*
X706882Y2894736D01*
X945692Y2655874D01*
X947978Y2652369D01*
X948690Y2648254D01*
X947572Y2644038D01*
X943102Y2630881D01*
X940409Y2617317D01*
X939495Y2603500D01*
X940409Y2589682D01*
X943102Y2576118D01*
X947572Y2562961D01*
X953668Y2550566D01*
X961390Y2539034D01*
X970534Y2528620D01*
X980948Y2519476D01*
X992428Y2511806D01*
X1004874Y2505659D01*
X1017981Y2501239D01*
X1031544Y2498496D01*
X1045413Y2497632D01*
X1059230Y2498496D01*
X1069898Y2500630D01*
X1073200Y2500731D01*
X1076350Y2499766D01*
X1079042Y2497886D01*
X1147724Y2429205D01*
X1151128Y2426055D01*
X1154684Y2423363D01*
X1158443Y2420975D01*
X1162354Y2418892D01*
X1166469Y2417216D01*
X1170686Y2415895D01*
X1175054Y2414930D01*
X1179423Y2414320D01*
X1184097Y2414117D01*
X1591208Y2414117D01*
X1595120Y2413355D01*
X1598422Y2411069D01*
X1600657Y2407716D01*
X1601368Y2403754D01*
X1600454Y2399842D01*
X1598117Y2396591D01*
X1591919Y2390749D01*
X1582623Y2379522D01*
X1574850Y2367229D01*
X1572717Y2362758D01*
X1625041Y2362758D01*
X1625041Y2403957D01*
X1625803Y2407869D01*
X1628038Y2411171D01*
X1631340Y2413355D01*
X1635201Y2414117D01*
X1717598Y2414117D01*
X1721459Y2413355D01*
X1724761Y2411171D01*
X1726996Y2407869D01*
X1727758Y2403957D01*
X1727758Y2362758D01*
X1780082Y2362758D01*
X1777949Y2367229D01*
X1770176Y2379522D01*
X1760880Y2390749D01*
X1754682Y2396591D01*
X1752346Y2399842D01*
X1751482Y2403754D01*
X1752193Y2407716D01*
X1754378Y2411069D01*
X1757680Y2413355D01*
X1761591Y2414117D01*
X1789582Y2414117D01*
X1793443Y2413355D01*
X1796745Y2411171D01*
X2007057Y2200808D01*
X2009089Y2197963D01*
X2010003Y2194610D01*
X2009749Y2191105D01*
X2007057Y2180691D01*
X2005228Y2166264D01*
X2005228Y2151735D01*
X2007057Y2137308D01*
X2010664Y2123186D01*
X2016048Y2109673D01*
X2023059Y2096922D01*
X2031593Y2085136D01*
X2041550Y2074519D01*
X2052777Y2065223D01*
X2065070Y2057450D01*
X2078228Y2051253D01*
X2092096Y2046732D01*
X2106371Y2044039D01*
X2120900Y2043125D01*
X2135428Y2044039D01*
X2149703Y2046732D01*
X2152446Y2047646D01*
X2156104Y2048103D01*
X2159711Y2047239D01*
X2162759Y2045157D01*
X2180894Y2026970D01*
X2183130Y2023719D01*
X2183892Y2019807D01*
X2183130Y2015896D01*
X2180894Y2012645D01*
X2177592Y2010410D01*
X2173732Y2009648D01*
X2031492Y2009648D01*
X2025142Y2008936D01*
X2019706Y2007006D01*
X2014778Y2003958D01*
X2010714Y1999843D01*
X2007616Y1994966D01*
X2005685Y1989480D01*
X2004974Y1983181D01*
X2004974Y1826818D01*
X2005685Y1820519D01*
X2007616Y1815033D01*
X2010714Y1810156D01*
X2014778Y1806041D01*
X2019706Y1802993D01*
X2025142Y1801063D01*
X2031492Y1800352D01*
X2210308Y1800352D01*
X2216658Y1801063D01*
X2222093Y1802993D01*
X2227021Y1806041D01*
X2231085Y1810156D01*
X2234184Y1815033D01*
X2236114Y1820519D01*
X2236825Y1826818D01*
X2236825Y1946554D01*
X2237587Y1950466D01*
X2239772Y1953768D01*
X2243074Y1955952D01*
X2246985Y1956714D01*
X2250846Y1955952D01*
X2254148Y1953768D01*
X2270201Y1937664D01*
X2272436Y1934413D01*
X2273198Y1930501D01*
X2273198Y1270508D01*
X2272385Y1266494D01*
X2270048Y1263142D01*
X2266594Y1261008D01*
X2261819Y1259230D01*
X2251049Y1253337D01*
X2241245Y1246022D01*
X2232609Y1237335D01*
X2230628Y1234694D01*
X2227884Y1232204D01*
X2224379Y1230833D01*
X2220620Y1230833D01*
X2217115Y1232204D01*
X2214372Y1234694D01*
X2212390Y1237335D01*
X2203754Y1246022D01*
X2193950Y1253337D01*
X2183841Y1258874D01*
X2183841Y1217472D01*
X2203145Y1217472D01*
X2207107Y1216660D01*
X2210460Y1214323D01*
X2212644Y1210919D01*
X2213305Y1206957D01*
X2212340Y1202994D01*
X2210257Y1198473D01*
X2207971Y1189939D01*
X2207158Y1180642D01*
X2207158Y1166977D01*
X2206396Y1163116D01*
X2204212Y1159814D01*
X2192121Y1147724D01*
X2188819Y1145540D01*
X2183841Y1144727D01*
X2183079Y1139748D01*
X2180894Y1136446D01*
X2101596Y1057198D01*
X2098294Y1054963D01*
X2094433Y1054201D01*
X1657451Y1054201D01*
X1653184Y1055166D01*
X1647393Y1056995D01*
X1643481Y1059027D01*
X1640789Y1062482D01*
X1639874Y1066800D01*
X1640789Y1071118D01*
X1643481Y1074572D01*
X1647393Y1076604D01*
X1651812Y1077823D01*
X1660652Y1081938D01*
X1668627Y1087526D01*
X1675485Y1094384D01*
X1681073Y1102360D01*
X1685188Y1111199D01*
X1687728Y1120597D01*
X1688592Y1130300D01*
X1687728Y1140002D01*
X1685188Y1149400D01*
X1681073Y1158240D01*
X1675485Y1166215D01*
X1668627Y1173073D01*
X1660652Y1178661D01*
X1651812Y1182776D01*
X1642414Y1185316D01*
X1632254Y1186230D01*
X1533144Y1186230D01*
X1522984Y1185316D01*
X1513586Y1182776D01*
X1512214Y1182166D01*
X1507947Y1181201D01*
X1473403Y1181201D01*
X1468780Y1180998D01*
X1464360Y1180439D01*
X1460042Y1179474D01*
X1455775Y1178153D01*
X1451711Y1176426D01*
X1447749Y1174394D01*
X1443990Y1172006D01*
X1440484Y1169314D01*
X1437030Y1166164D01*
X1373835Y1102969D01*
X1370685Y1099515D01*
X1367993Y1096010D01*
X1365605Y1092250D01*
X1363573Y1088288D01*
X1361846Y1084224D01*
X1360525Y1079957D01*
X1359560Y1075639D01*
X1359001Y1071219D01*
X1358798Y1066596D01*
X1358798Y292303D01*
X1359001Y287680D01*
X1359560Y283260D01*
X1360525Y278942D01*
X1361846Y274828D01*
X1363014Y272135D01*
X1363878Y268528D01*
X1363370Y264871D01*
X1360932Y257403D01*
X1358239Y243128D01*
X1357325Y228600D01*
X1358239Y214071D01*
X1360932Y199796D01*
X1365453Y185928D01*
X1368755Y178917D01*
X1369720Y175006D01*
X1369060Y171043D01*
X1366926Y167640D01*
X1363624Y165303D01*
X1359712Y164439D01*
X1355750Y165201D01*
X1352346Y167436D01*
X1326845Y192989D01*
X1324610Y196291D01*
X1323848Y200152D01*
X1323848Y306781D01*
X1323136Y313080D01*
X1321206Y318566D01*
X1318158Y323443D01*
X1314043Y327558D01*
X1309166Y330606D01*
X1303680Y332536D01*
X1297381Y333248D01*
X1141018Y333248D01*
X1134719Y332536D01*
X1129233Y330606D01*
X1124356Y327558D01*
X1120241Y323443D01*
X1117193Y318566D01*
X1115263Y313080D01*
X1114552Y306781D01*
X1114552Y150418D01*
X1115263Y144119D01*
X1117193Y138633D01*
X1120241Y133756D01*
X1124356Y129641D01*
X1129233Y126593D01*
X1134719Y124663D01*
X1141018Y123952D01*
X1247648Y123952D01*
X1251508Y123189D01*
X1254810Y120954D01*
X1332534Y43230D01*
X1334770Y39979D01*
X1335532Y36068D01*
X1334770Y32156D01*
X1332534Y28905D01*
X1329232Y26670D01*
X1325372Y25908D01*
G37*

%LPC*%
G36*
X665480Y134721D02*
G01*
X665480Y182880D01*
X617321Y182880D01*
X620572Y176276D01*
X628192Y164896D01*
X637235Y154635D01*
X647496Y145592D01*
X658876Y137972D01*
G37*
G36*
X756920Y134721D02*
G01*
X763524Y137972D01*
X774903Y145592D01*
X785164Y154635D01*
X794207Y164896D01*
X801827Y176276D01*
X805078Y182880D01*
X756920Y182880D01*
G37*
G36*
X617321Y274320D02*
G01*
X665480Y274320D01*
X665480Y322478D01*
X658876Y319227D01*
X647496Y311607D01*
X637235Y302564D01*
X628192Y292303D01*
X620572Y280924D01*
G37*
G36*
X756920Y274320D02*
G01*
X805078Y274320D01*
X801827Y280924D01*
X794207Y292303D01*
X785164Y302564D01*
X774903Y311607D01*
X763524Y319227D01*
X756920Y322478D01*
G37*
G36*
X2300579Y532993D02*
G01*
X2314143Y534314D01*
X2327402Y537514D01*
X2340152Y542391D01*
X2352090Y548944D01*
X2363063Y557022D01*
X2372868Y566521D01*
X2381351Y577240D01*
X2388311Y588975D01*
X2393594Y601522D01*
X2397201Y614680D01*
X2399030Y628192D01*
X2399030Y641807D01*
X2397201Y655320D01*
X2393594Y668477D01*
X2388311Y681024D01*
X2381351Y692759D01*
X2372868Y703478D01*
X2363063Y712978D01*
X2352090Y721055D01*
X2340152Y727608D01*
X2327402Y732485D01*
X2314143Y735685D01*
X2300579Y737006D01*
X2286965Y736549D01*
X2273503Y734314D01*
X2260498Y730250D01*
X2248103Y724509D01*
X2236622Y717194D01*
X2226208Y708406D01*
X2217064Y698246D01*
X2209342Y687019D01*
X2206294Y681024D01*
X2203551Y677672D01*
X2199690Y675792D01*
X2198166Y675741D01*
X2199741Y673506D01*
X2200656Y669747D01*
X2200097Y665937D01*
X2198725Y661974D01*
X2195982Y648614D01*
X2195068Y635000D01*
X2195982Y621385D01*
X2198725Y608025D01*
X2200097Y604062D01*
X2200656Y600252D01*
X2199741Y596493D01*
X2198166Y594309D01*
X2199741Y594258D01*
X2203602Y592328D01*
X2206294Y588975D01*
X2209342Y582980D01*
X2217064Y571754D01*
X2226208Y561594D01*
X2236622Y552805D01*
X2248103Y545490D01*
X2260498Y539750D01*
X2273503Y535686D01*
X2286965Y533450D01*
G37*
G36*
X2141474Y543204D02*
G01*
X2151938Y548944D01*
X2162911Y557022D01*
X2172716Y566521D01*
X2181199Y577240D01*
X2188514Y589584D01*
X2189378Y590550D01*
X2141474Y590550D01*
G37*
G36*
X2052574Y543356D02*
G01*
X2052574Y590550D01*
X2005380Y590550D01*
X2009190Y582980D01*
X2016912Y571754D01*
X2026056Y561594D01*
X2036470Y552805D01*
X2047951Y545490D01*
G37*
G36*
X551992Y574548D02*
G01*
X565607Y574548D01*
X579120Y576376D01*
X592277Y579983D01*
X604824Y585266D01*
X616559Y592226D01*
X627278Y600710D01*
X636778Y610514D01*
X644855Y621487D01*
X651408Y633425D01*
X656285Y646176D01*
X659485Y659434D01*
X660806Y672998D01*
X660349Y686612D01*
X658114Y700074D01*
X654050Y713079D01*
X648309Y725474D01*
X640994Y736955D01*
X632206Y747369D01*
X622046Y756513D01*
X610819Y764235D01*
X598678Y770382D01*
X585774Y774852D01*
X572414Y777595D01*
X558800Y778459D01*
X545185Y777595D01*
X531825Y774852D01*
X518922Y770382D01*
X506780Y764235D01*
X495554Y756513D01*
X485393Y747369D01*
X476605Y736955D01*
X469290Y725474D01*
X463550Y713079D01*
X459485Y700074D01*
X457250Y686612D01*
X456793Y672998D01*
X458114Y659434D01*
X461314Y646176D01*
X466191Y633425D01*
X472744Y621487D01*
X480822Y610514D01*
X490321Y600710D01*
X501040Y592226D01*
X512775Y585266D01*
X525322Y579983D01*
X538480Y576376D01*
G37*
G36*
X2005380Y679450D02*
G01*
X2052574Y679450D01*
X2052574Y726643D01*
X2047951Y724509D01*
X2036470Y717194D01*
X2026056Y708406D01*
X2016912Y698246D01*
X2009190Y687019D01*
G37*
G36*
X2141474Y679450D02*
G01*
X2189429Y679450D01*
X2188464Y680466D01*
X2181199Y692759D01*
X2172716Y703478D01*
X2162911Y712978D01*
X2151938Y721055D01*
X2141474Y726795D01*
G37*
G36*
X1029055Y693369D02*
G01*
X1032256Y693369D01*
X1042416Y694283D01*
X1051814Y696823D01*
X1060653Y700938D01*
X1068628Y706526D01*
X1075486Y713384D01*
X1081074Y721360D01*
X1084173Y727964D01*
X1029055Y727964D01*
G37*
G36*
X933145Y693369D02*
G01*
X936345Y693369D01*
X936345Y727964D01*
X881227Y727964D01*
X884326Y721360D01*
X889914Y713384D01*
X896772Y706526D01*
X904748Y700938D01*
X913587Y696823D01*
X922985Y694283D01*
G37*
G36*
X2111146Y1103325D02*
G01*
X2111146Y1144727D01*
X2069744Y1144727D01*
X2075230Y1134668D01*
X2082596Y1124864D01*
X2091232Y1116177D01*
X2101088Y1108862D01*
G37*
G36*
X1029055Y1151636D02*
G01*
X1084173Y1151636D01*
X1081074Y1158240D01*
X1075486Y1166215D01*
X1068628Y1173073D01*
X1060653Y1178661D01*
X1051814Y1182776D01*
X1042416Y1185316D01*
X1032256Y1186230D01*
X1029055Y1186230D01*
G37*
G36*
X2069744Y1217472D02*
G01*
X2111146Y1217472D01*
X2111146Y1258874D01*
X2101088Y1253337D01*
X2091232Y1246022D01*
X2082596Y1237335D01*
X2075230Y1227531D01*
G37*
G36*
X1625041Y2207666D02*
G01*
X1625041Y2260041D01*
X1572717Y2260041D01*
X1574850Y2255570D01*
X1582623Y2243277D01*
X1591919Y2232050D01*
X1602536Y2222093D01*
X1614322Y2213559D01*
G37*
G36*
X1727758Y2207666D02*
G01*
X1738477Y2213559D01*
X1750263Y2222093D01*
X1760880Y2232050D01*
X1770176Y2243277D01*
X1777949Y2255570D01*
X1780082Y2260041D01*
X1727758Y2260041D01*
G37*
G36*
X508000Y2358390D02*
G01*
X521614Y2359304D01*
X534974Y2362047D01*
X547878Y2366518D01*
X560019Y2372664D01*
X571246Y2380386D01*
X581406Y2389530D01*
X590194Y2399944D01*
X597509Y2411425D01*
X603250Y2423820D01*
X607314Y2436825D01*
X609549Y2450287D01*
X610006Y2463901D01*
X608685Y2477465D01*
X605485Y2490724D01*
X600608Y2503474D01*
X594055Y2515412D01*
X585978Y2526385D01*
X576478Y2536190D01*
X565759Y2544673D01*
X554024Y2551633D01*
X541477Y2556916D01*
X528320Y2560523D01*
X514807Y2562352D01*
X501192Y2562352D01*
X487680Y2560523D01*
X474522Y2556916D01*
X461975Y2551633D01*
X450240Y2544673D01*
X439521Y2536190D01*
X430022Y2526385D01*
X421944Y2515412D01*
X415391Y2503474D01*
X410514Y2490724D01*
X407314Y2477465D01*
X405993Y2463901D01*
X406450Y2450287D01*
X408686Y2436825D01*
X412750Y2423820D01*
X418490Y2411425D01*
X425805Y2399944D01*
X434593Y2389530D01*
X444754Y2380386D01*
X455980Y2372664D01*
X468122Y2366518D01*
X481025Y2362047D01*
X494385Y2359304D01*
G37*
G36*
X190500Y2358390D02*
G01*
X204114Y2359304D01*
X217474Y2362047D01*
X230378Y2366518D01*
X242519Y2372664D01*
X253746Y2380386D01*
X263906Y2389530D01*
X272694Y2399944D01*
X280009Y2411425D01*
X285750Y2423820D01*
X289814Y2436825D01*
X292049Y2450287D01*
X292506Y2463901D01*
X291185Y2477465D01*
X287985Y2490724D01*
X283108Y2503474D01*
X276555Y2515412D01*
X268478Y2526385D01*
X258978Y2536190D01*
X248259Y2544673D01*
X236524Y2551633D01*
X233781Y2554020D01*
X232054Y2557272D01*
X231597Y2560929D01*
X232460Y2564485D01*
X234543Y2567533D01*
X375056Y2708046D01*
X378256Y2710230D01*
X382066Y2711043D01*
X385876Y2710332D01*
X388874Y2709214D01*
X402132Y2706014D01*
X415696Y2704693D01*
X429310Y2705150D01*
X442772Y2707386D01*
X455777Y2711450D01*
X468172Y2717190D01*
X479653Y2724505D01*
X490067Y2733294D01*
X499211Y2743454D01*
X506933Y2754680D01*
X513080Y2766822D01*
X517550Y2779725D01*
X520293Y2793085D01*
X521208Y2806700D01*
X520293Y2820314D01*
X517550Y2833674D01*
X513080Y2846578D01*
X506933Y2858719D01*
X499211Y2869946D01*
X490067Y2880106D01*
X479653Y2888894D01*
X468172Y2896209D01*
X455777Y2901950D01*
X442772Y2906014D01*
X429310Y2908249D01*
X415696Y2908706D01*
X402132Y2907385D01*
X388874Y2904185D01*
X376123Y2899308D01*
X364185Y2892755D01*
X353212Y2884678D01*
X343408Y2875178D01*
X334924Y2864459D01*
X327964Y2852724D01*
X322681Y2840177D01*
X319074Y2827020D01*
X317246Y2813507D01*
X317246Y2799892D01*
X319074Y2786380D01*
X322935Y2772410D01*
X323240Y2768854D01*
X322326Y2765399D01*
X320294Y2762504D01*
X163576Y2605735D01*
X158445Y2599537D01*
X154889Y2592832D01*
X152704Y2585618D01*
X151892Y2577592D01*
X151892Y2561488D01*
X151130Y2557627D01*
X148945Y2554325D01*
X132740Y2544673D01*
X122021Y2536190D01*
X112522Y2526385D01*
X104444Y2515412D01*
X97891Y2503474D01*
X93014Y2490724D01*
X89814Y2477465D01*
X88493Y2463901D01*
X88950Y2450287D01*
X91186Y2436825D01*
X95250Y2423820D01*
X100990Y2411425D01*
X108305Y2399944D01*
X117094Y2389530D01*
X127254Y2380386D01*
X138480Y2372664D01*
X150622Y2366518D01*
X163525Y2362047D01*
X176885Y2359304D01*
G37*
G36*
X1591716Y2649829D02*
G01*
X1640332Y2649829D01*
X1637080Y2656433D01*
X1629410Y2667965D01*
X1620266Y2678379D01*
X1609852Y2687523D01*
X1598320Y2695194D01*
X1591716Y2698445D01*
G37*
G36*
X1450441Y2649829D02*
G01*
X1499057Y2649829D01*
X1499057Y2698445D01*
X1492453Y2695194D01*
X1480921Y2687523D01*
X1470507Y2678379D01*
X1461363Y2667965D01*
X1453692Y2656433D01*
G37*
G36*
X1923592Y2831846D02*
G01*
X1937207Y2831846D01*
X1950720Y2833674D01*
X1963877Y2837281D01*
X1976424Y2842564D01*
X1988159Y2849524D01*
X1998878Y2858008D01*
X2008378Y2867812D01*
X2016455Y2878785D01*
X2023008Y2890723D01*
X2027885Y2903474D01*
X2031085Y2916732D01*
X2032406Y2930296D01*
X2031949Y2943910D01*
X2029714Y2957372D01*
X2025650Y2970377D01*
X2019909Y2982772D01*
X2012594Y2994253D01*
X2003806Y3004667D01*
X1993646Y3013811D01*
X1982419Y3021533D01*
X1970278Y3027680D01*
X1957374Y3032150D01*
X1944014Y3034893D01*
X1930400Y3035808D01*
X1916785Y3034893D01*
X1903425Y3032150D01*
X1895195Y3029305D01*
X1891080Y3028746D01*
X1887067Y3029915D01*
X1881632Y3032810D01*
X1874418Y3034995D01*
X1866392Y3035808D01*
X1507236Y3035808D01*
X1503578Y3036468D01*
X1500428Y3038449D01*
X1498193Y3041396D01*
X1494231Y3049219D01*
X1486509Y3060446D01*
X1477365Y3070606D01*
X1466951Y3079394D01*
X1455470Y3086709D01*
X1443075Y3092450D01*
X1430070Y3096514D01*
X1416608Y3098749D01*
X1402994Y3099206D01*
X1389430Y3097885D01*
X1376121Y3094685D01*
X1363421Y3089808D01*
X1351483Y3083255D01*
X1340459Y3075178D01*
X1330655Y3065678D01*
X1322222Y3054959D01*
X1315262Y3043224D01*
X1309928Y3030677D01*
X1306372Y3017520D01*
X1304544Y3004007D01*
X1304544Y2990392D01*
X1306372Y2976880D01*
X1309928Y2963722D01*
X1315262Y2951175D01*
X1322222Y2939440D01*
X1330655Y2928721D01*
X1340459Y2919222D01*
X1351483Y2911144D01*
X1363421Y2904591D01*
X1376121Y2899714D01*
X1389430Y2896514D01*
X1402994Y2895193D01*
X1416608Y2895650D01*
X1430070Y2897886D01*
X1443075Y2901950D01*
X1455470Y2907690D01*
X1466951Y2915005D01*
X1477365Y2923794D01*
X1486509Y2933954D01*
X1494231Y2945180D01*
X1498193Y2953004D01*
X1500428Y2955950D01*
X1503578Y2957931D01*
X1507236Y2958592D01*
X1819300Y2958592D01*
X1823567Y2957626D01*
X1827022Y2954985D01*
X1829104Y2951124D01*
X1829307Y2946755D01*
X1828850Y2943910D01*
X1828393Y2930296D01*
X1829714Y2916732D01*
X1832914Y2903474D01*
X1837791Y2890723D01*
X1844344Y2878785D01*
X1852422Y2867812D01*
X1861921Y2858008D01*
X1872640Y2849524D01*
X1884375Y2842564D01*
X1896922Y2837281D01*
X1910080Y2833674D01*
G37*
G36*
X2298700Y3012744D02*
G01*
X2312314Y3013659D01*
X2325674Y3016351D01*
X2338578Y3020822D01*
X2350719Y3026968D01*
X2361946Y3034690D01*
X2372106Y3043834D01*
X2380894Y3054248D01*
X2388209Y3065729D01*
X2393950Y3078124D01*
X2398014Y3091129D01*
X2400249Y3104591D01*
X2400706Y3118205D01*
X2399385Y3131769D01*
X2396185Y3145078D01*
X2391308Y3157778D01*
X2384755Y3169716D01*
X2376678Y3180740D01*
X2367178Y3190544D01*
X2356459Y3198977D01*
X2344724Y3205937D01*
X2332177Y3211271D01*
X2319020Y3214827D01*
X2305507Y3216656D01*
X2291892Y3216656D01*
X2278380Y3214827D01*
X2265222Y3211271D01*
X2252675Y3205937D01*
X2240940Y3198977D01*
X2230221Y3190544D01*
X2220722Y3180740D01*
X2212644Y3169716D01*
X2206091Y3157778D01*
X2201214Y3145078D01*
X2198014Y3131769D01*
X2196693Y3118205D01*
X2197150Y3104591D01*
X2199386Y3091129D01*
X2203450Y3078124D01*
X2209190Y3065729D01*
X2216505Y3054248D01*
X2225294Y3043834D01*
X2235454Y3034690D01*
X2246680Y3026968D01*
X2258822Y3020822D01*
X2271725Y3016351D01*
X2285085Y3013659D01*
G37*
G36*
X1885950Y3095904D02*
G01*
X1885950Y3143250D01*
X1838604Y3143250D01*
X1844344Y3132785D01*
X1852422Y3121812D01*
X1861921Y3112008D01*
X1872640Y3103524D01*
X1884375Y3096564D01*
G37*
G36*
X1974850Y3095904D02*
G01*
X1976424Y3096564D01*
X1988159Y3103524D01*
X1998878Y3112008D01*
X2008378Y3121812D01*
X2016455Y3132785D01*
X2022195Y3143250D01*
X1974850Y3143250D01*
G37*
G36*
X1402994Y3199993D02*
G01*
X1416608Y3200450D01*
X1430070Y3202686D01*
X1443075Y3206750D01*
X1455470Y3212490D01*
X1466951Y3219805D01*
X1477365Y3228594D01*
X1486509Y3238754D01*
X1494231Y3249980D01*
X1500378Y3262122D01*
X1504848Y3275025D01*
X1507540Y3288385D01*
X1508455Y3302000D01*
X1507540Y3315614D01*
X1504848Y3328974D01*
X1500378Y3341878D01*
X1494231Y3354019D01*
X1486509Y3365246D01*
X1477365Y3375406D01*
X1466951Y3384194D01*
X1455470Y3391509D01*
X1443075Y3397250D01*
X1430070Y3401314D01*
X1416608Y3403549D01*
X1402994Y3404006D01*
X1389430Y3402685D01*
X1376121Y3399485D01*
X1363421Y3394608D01*
X1351483Y3388055D01*
X1340459Y3379978D01*
X1330655Y3370478D01*
X1322222Y3359759D01*
X1315262Y3348024D01*
X1309928Y3335477D01*
X1306372Y3322320D01*
X1304544Y3308807D01*
X1304544Y3295192D01*
X1306372Y3281679D01*
X1309928Y3268522D01*
X1315262Y3255975D01*
X1322222Y3244240D01*
X1330655Y3233521D01*
X1340459Y3224022D01*
X1351483Y3215944D01*
X1363421Y3209391D01*
X1376121Y3204514D01*
X1389430Y3201314D01*
G37*
G36*
X631952Y3210204D02*
G01*
X631952Y3257550D01*
X584606Y3257550D01*
X585266Y3255975D01*
X592226Y3244240D01*
X600710Y3233521D01*
X610514Y3224022D01*
X621487Y3215944D01*
G37*
G36*
X720852Y3210356D02*
G01*
X725474Y3212490D01*
X736955Y3219805D01*
X747369Y3228594D01*
X756513Y3238754D01*
X764235Y3249980D01*
X768045Y3257550D01*
X720852Y3257550D01*
G37*
G36*
X1838756Y3232150D02*
G01*
X1885950Y3232150D01*
X1885950Y3279343D01*
X1878380Y3275533D01*
X1867154Y3267811D01*
X1856993Y3258667D01*
X1848205Y3248253D01*
X1840890Y3236772D01*
G37*
G36*
X1974850Y3232150D02*
G01*
X2022043Y3232150D01*
X2019909Y3236772D01*
X2012594Y3248253D01*
X2003806Y3258667D01*
X1993646Y3267811D01*
X1982419Y3275533D01*
X1974850Y3279343D01*
G37*
G36*
X415696Y3326993D02*
G01*
X429310Y3327450D01*
X442772Y3329686D01*
X455777Y3333750D01*
X468172Y3339490D01*
X479653Y3346805D01*
X490067Y3355594D01*
X499211Y3365754D01*
X506933Y3376980D01*
X513080Y3389122D01*
X517550Y3402025D01*
X520293Y3415385D01*
X521208Y3429000D01*
X520293Y3442614D01*
X517550Y3455974D01*
X513080Y3468878D01*
X506933Y3481019D01*
X499211Y3492246D01*
X490067Y3502406D01*
X479653Y3511194D01*
X468172Y3518509D01*
X455777Y3524250D01*
X442772Y3528314D01*
X429310Y3530549D01*
X415696Y3531006D01*
X402132Y3529685D01*
X388874Y3526485D01*
X376123Y3521608D01*
X364185Y3515055D01*
X353212Y3506978D01*
X343408Y3497478D01*
X334924Y3486759D01*
X327964Y3475024D01*
X322681Y3462477D01*
X319074Y3449320D01*
X317246Y3435807D01*
X317246Y3422192D01*
X319074Y3408679D01*
X322681Y3395522D01*
X327964Y3382975D01*
X334924Y3371240D01*
X343408Y3360521D01*
X353212Y3351022D01*
X364185Y3342944D01*
X376123Y3336391D01*
X388874Y3331514D01*
X402132Y3328314D01*
G37*
G36*
X720852Y3346450D02*
G01*
X768045Y3346450D01*
X764235Y3354019D01*
X756513Y3365246D01*
X747369Y3375406D01*
X736955Y3384194D01*
X725474Y3391509D01*
X720852Y3393643D01*
G37*
G36*
X584606Y3346450D02*
G01*
X631952Y3346450D01*
X631952Y3393795D01*
X621487Y3388055D01*
X610514Y3379978D01*
X600710Y3370478D01*
X592226Y3359759D01*
X585266Y3348024D01*
G37*
G36*
X1896770Y3399536D02*
G01*
X1896770Y3448151D01*
X1848154Y3448151D01*
X1851406Y3441547D01*
X1859076Y3430015D01*
X1868220Y3419601D01*
X1878634Y3410508D01*
X1890166Y3402787D01*
G37*
G36*
X1989429Y3399536D02*
G01*
X1996033Y3402787D01*
X2007565Y3410508D01*
X2017979Y3419601D01*
X2027123Y3430015D01*
X2034793Y3441547D01*
X2038045Y3448151D01*
X1989429Y3448151D01*
G37*
G36*
X1848154Y3540861D02*
G01*
X1896770Y3540861D01*
X1896770Y3589426D01*
X1890166Y3586175D01*
X1878634Y3578504D01*
X1868220Y3569360D01*
X1859076Y3558946D01*
X1851406Y3547465D01*
G37*
G36*
X1989429Y3540861D02*
G01*
X2038045Y3540861D01*
X2034793Y3547465D01*
X2027123Y3558946D01*
X2017979Y3569360D01*
X2007565Y3578504D01*
X1996033Y3586175D01*
X1989429Y3589426D01*
G37*
G36*
X1218641Y3617366D02*
G01*
X1218641Y3669741D01*
X1166317Y3669741D01*
X1168450Y3665270D01*
X1176223Y3652977D01*
X1185519Y3641750D01*
X1196136Y3631793D01*
X1207922Y3623259D01*
G37*
G36*
X1321358Y3617366D02*
G01*
X1332077Y3623259D01*
X1343863Y3631793D01*
X1354480Y3641750D01*
X1363776Y3652977D01*
X1371549Y3665270D01*
X1373682Y3669741D01*
X1321358Y3669741D01*
G37*
G36*
X1166317Y3772458D02*
G01*
X1218641Y3772458D01*
X1218641Y3824833D01*
X1207922Y3818940D01*
X1196136Y3810406D01*
X1185519Y3800449D01*
X1176223Y3789222D01*
X1168450Y3776929D01*
G37*
G36*
X1321358Y3772458D02*
G01*
X1373682Y3772458D01*
X1371549Y3776929D01*
X1363776Y3789222D01*
X1354480Y3800449D01*
X1343863Y3810406D01*
X1332077Y3818940D01*
X1321358Y3824833D01*
G37*

%LPD*%
D10*
X839978Y1127252D02*
G01*
X839978Y1066800D01*
X711200Y1066800D01*
X431800Y1346200D01*
X431800Y1574800D01*
X276097Y1730502D01*
X190500Y1730502D01*
D11*
X1219200Y228600D02*
G01*
X1371600Y76200D01*
X1905000Y76200D01*
X1905000Y660400D01*
X1689100Y876300D01*
X1582673Y876300D01*
D10*
X965200Y228600D02*
G01*
X812800Y76200D01*
X393700Y76200D01*
X330200Y139700D01*
X330200Y689102D01*
X304800Y689102D01*
D11*
X711200Y228600D02*
G01*
X711200Y584200D01*
X876300Y749300D01*
X982700Y749300D01*
D10*
X1676400Y2057400D02*
G01*
X1549400Y2184400D01*
X279400Y2184400D01*
X44957Y1949957D01*
X44957Y386842D01*
X203200Y228600D01*
D11*
X1473200Y228600D02*
G01*
X1409700Y292100D01*
X1409700Y1066800D01*
X1473200Y1130300D01*
X1582673Y1130300D01*
X982700Y1130300D02*
G01*
X1041400Y1130300D01*
X1168400Y1257300D01*
X1816100Y1257300D01*
X1676400Y2311400D02*
G01*
X1806778Y2181021D01*
X1816100Y1257300D01*
X2147570Y1181100D02*
G01*
X2071370Y1257300D01*
X1816100Y1257300D01*
X982700Y749300D02*
G01*
X1117600Y749300D01*
X1193800Y825500D01*
X1193800Y1028700D01*
X1092200Y1130300D01*
X982700Y1130300D01*
D10*
X839978Y1127252D02*
G01*
X839978Y1065021D01*
X901700Y1003300D01*
X982726Y1003300D01*
X1676400Y1549400D02*
G01*
X1219200Y1549400D01*
X839978Y1170178D01*
X839978Y1127252D01*
X2298700Y3844797D02*
G01*
X2043429Y3844797D01*
X1943100Y3744468D01*
X1016000Y3721100D02*
G01*
X1181100Y3886200D01*
X1801368Y3886200D01*
X1943100Y3744468D01*
D11*
X2258059Y1181100D02*
G01*
X2324100Y1181100D01*
X2324100Y1955800D01*
X2120900Y2159000D01*
D10*
X1406397Y2997200D02*
G01*
X1866900Y2997200D01*
X1930400Y2933700D01*
X508000Y1730476D02*
G01*
X562076Y1676400D01*
X1549400Y1676400D01*
X1676400Y1803400D01*
X982700Y876300D02*
G01*
X874598Y876300D01*
X791870Y959027D01*
X613282Y959027D01*
X85750Y1486560D01*
X85750Y1773758D01*
X150240Y1838248D01*
X400227Y1838248D01*
X508000Y1730476D01*
D11*
X1727200Y228600D02*
G01*
X1727200Y604799D01*
X1582699Y749300D01*
D10*
X190500Y2460497D02*
G01*
X190500Y2578100D01*
X419100Y2806700D01*
D11*
X1270000Y3494506D02*
G01*
X1943100Y3494506D01*
X676402Y3302000D02*
G01*
X1077493Y3302000D01*
X1270000Y3494506D01*
X1270000Y3494506D02*
G01*
X1270000Y3721100D01*
X676376Y2997200D02*
G01*
X1045413Y2628163D01*
X1045413Y2603500D01*
X1045413Y2603500D02*
G01*
X1183868Y2465044D01*
X1814855Y2465044D01*
X2120900Y2159000D01*
X1582699Y876300D02*
G01*
X1582699Y1003300D01*
X2297506Y1181100D02*
G01*
X2258085Y1181100D01*
X1582699Y1003300D02*
G01*
X2119706Y1003300D01*
X2258085Y1141679D01*
X2258085Y1181100D01*
X355600Y2997200D02*
G01*
X165100Y3187700D01*
X165100Y3429000D01*
X676376Y2997200D02*
G01*
X355600Y2997200D01*
X355600Y2997200D02*
G01*
X165100Y2806700D01*
D20*
X1632699Y1130300D02*
G01*
X1532699Y1130300D01*
X1632699Y1003300D02*
G01*
X1532699Y1003300D01*
X1632699Y876300D02*
G01*
X1532699Y876300D01*
X1632699Y749300D02*
G01*
X1532699Y749300D01*
X1032700Y1130300D02*
G01*
X932700Y1130300D01*
X1032700Y1003300D02*
G01*
X932700Y1003300D01*
X1032700Y876300D02*
G01*
X932700Y876300D01*
X1032700Y749300D02*
G01*
X932700Y749300D01*
D12*
G01*
X1943100Y3744493D03*
G01*
X1943100Y3494506D03*
D13*
G01*
X2120900Y2413000D03*
G01*
X2120900Y2159000D03*
D14*
G01*
X2120900Y1905000D03*
D15*
G01*
X304800Y1419097D03*
G01*
X304800Y689076D03*
D16*
G01*
X203200Y228600D03*
G01*
X457200Y228600D03*
G01*
X711200Y228600D03*
G01*
X965200Y228600D03*
D17*
G01*
X1219200Y228600D03*
D15*
G01*
X558800Y1406397D03*
G01*
X558800Y676376D03*
D13*
G01*
X914400Y2311400D03*
G01*
X914400Y2057400D03*
G01*
X1676400Y2057400D03*
G01*
X1676400Y2311400D03*
G01*
X914400Y1803400D03*
G01*
X914400Y1549400D03*
G01*
X1676400Y1803400D03*
G01*
X1676400Y1549400D03*
G36*
X1434000Y3811099D02*
G01*
X1613999Y3811099D01*
X1613999Y3631100D01*
X1434000Y3631100D01*
G37*
G01*
X1270000Y3721100D03*
G01*
X1016000Y3721100D03*
D19*
G01*
X2147493Y1181100D03*
G01*
X2297506Y1181100D03*
D12*
G01*
X1045413Y2603500D03*
G01*
X1545412Y2603500D03*
D15*
G01*
X1930400Y2933700D03*
G01*
X1930400Y3187700D03*
G01*
X165100Y2806700D03*
G01*
X419100Y2806700D03*
G01*
X165100Y3429000D03*
G01*
X419100Y3429000D03*
G01*
X1406397Y2997200D03*
G01*
X676376Y2997200D03*
G01*
X2298700Y3114776D03*
G01*
X2298700Y3844797D03*
G01*
X190500Y1730476D03*
G01*
X190500Y2460497D03*
G01*
X508000Y1730476D03*
G01*
X508000Y2460497D03*
G01*
X1406423Y3302000D03*
G01*
X676402Y3302000D03*
G01*
X2297175Y635000D03*
G01*
X2097024Y635000D03*
D13*
G01*
X1473200Y228600D03*
D18*
G01*
X1727200Y228600D03*
M02*
