G04 Layer: BottomSilkscreenLayer*
G04 EasyEDA v6.4.31, 2022-01-29 23:58:21*
G04 f8a1f9972e504da7969cdc8d593e69ee,00a5ad12733442db97615573759eb5db,10*
G04 Gerber Generator version 0.2*
G04 Scale: 100 percent, Rotated: No, Reflected: No *
G04 Dimensions in millimeters *
G04 leading zeros omitted , absolute positions ,4 integer and 5 decimal *
%FSLAX45Y45*%
%MOMM*%

%ADD10C,0.2540*%
%ADD23C,0.1524*%

%LPD*%
G36*
X2097278Y496062D02*
G01*
X2090267Y495858D01*
X2083511Y495249D01*
X2077059Y494233D01*
X2070912Y492810D01*
X2065121Y491032D01*
X2059584Y488899D01*
X2054402Y486409D01*
X2049576Y483616D01*
X2045055Y480466D01*
X2040889Y477062D01*
X2037080Y473303D01*
X2033676Y469290D01*
X2030577Y465023D01*
X2027936Y460451D01*
X2025650Y455676D01*
X2023719Y450646D01*
X2022246Y445414D01*
X2021179Y439978D01*
X2020519Y434340D01*
X2020316Y428498D01*
X2020722Y421132D01*
X2021941Y414426D01*
X2023770Y408330D01*
X2026107Y402793D01*
X2028850Y397865D01*
X2031898Y393446D01*
X2035098Y389534D01*
X2038350Y386080D01*
X2049272Y395478D01*
X2043734Y401523D01*
X2039213Y408838D01*
X2036165Y417626D01*
X2035048Y428243D01*
X2035302Y433882D01*
X2036114Y439216D01*
X2037486Y444296D01*
X2039315Y449122D01*
X2041702Y453593D01*
X2044547Y457758D01*
X2047849Y461568D01*
X2051659Y465023D01*
X2055875Y468172D01*
X2060549Y470916D01*
X2065629Y473252D01*
X2071166Y475234D01*
X2077059Y476758D01*
X2083358Y477875D01*
X2090013Y478535D01*
X2097024Y478790D01*
X2104034Y478586D01*
X2110740Y477926D01*
X2117039Y476910D01*
X2122982Y475437D01*
X2128520Y473557D01*
X2133650Y471322D01*
X2138375Y468630D01*
X2142642Y465632D01*
X2146503Y462178D01*
X2149856Y458419D01*
X2152751Y454253D01*
X2155139Y449732D01*
X2157018Y444906D01*
X2158390Y439674D01*
X2159203Y434136D01*
X2159508Y428243D01*
X2158847Y419963D01*
X2157018Y412140D01*
X2154021Y405231D01*
X2150110Y399796D01*
X2109470Y399796D01*
X2109470Y432308D01*
X2095500Y432308D01*
X2095500Y384302D01*
X2157222Y384302D01*
X2160778Y388162D01*
X2164080Y392582D01*
X2166975Y397611D01*
X2169464Y403148D01*
X2171446Y409143D01*
X2172970Y415645D01*
X2173935Y422503D01*
X2174240Y429768D01*
X2174036Y435508D01*
X2173376Y441045D01*
X2172309Y446430D01*
X2170887Y451561D01*
X2169007Y456539D01*
X2166721Y461213D01*
X2164080Y465683D01*
X2161032Y469900D01*
X2157628Y473811D01*
X2153869Y477469D01*
X2149703Y480872D01*
X2145233Y483920D01*
X2140356Y486664D01*
X2135174Y489102D01*
X2129637Y491185D01*
X2123795Y492912D01*
X2117648Y494284D01*
X2111146Y495249D01*
X2104390Y495858D01*
G37*
G36*
X2022856Y348234D02*
G01*
X2022856Y330962D01*
X2119376Y274828D01*
X2149856Y258571D01*
X2149856Y257556D01*
X2126691Y259079D01*
X2114956Y259638D01*
X2103374Y259842D01*
X2022856Y259842D01*
X2022856Y243840D01*
X2171700Y243840D01*
X2171700Y261366D01*
X2075434Y317246D01*
X2044954Y333502D01*
X2044954Y334518D01*
X2067255Y333197D01*
X2084374Y332536D01*
X2171700Y332486D01*
X2171700Y348234D01*
G37*
G36*
X2022856Y202438D02*
G01*
X2022856Y185420D01*
X2157984Y185420D01*
X2157984Y167132D01*
X2157730Y160578D01*
X2156917Y154482D01*
X2155596Y148793D01*
X2153716Y143560D01*
X2151430Y138734D01*
X2148586Y134315D01*
X2145334Y130352D01*
X2141575Y126796D01*
X2137410Y123698D01*
X2132787Y121005D01*
X2127758Y118719D01*
X2122322Y116839D01*
X2116480Y115417D01*
X2110282Y114350D01*
X2103678Y113741D01*
X2096770Y113537D01*
X2089810Y113741D01*
X2083257Y114350D01*
X2077110Y115417D01*
X2071319Y116839D01*
X2065985Y118719D01*
X2061057Y121005D01*
X2056587Y123698D01*
X2052523Y126796D01*
X2048916Y130352D01*
X2045766Y134315D01*
X2043074Y138734D01*
X2040839Y143560D01*
X2039112Y148793D01*
X2037842Y154482D01*
X2037080Y160578D01*
X2036825Y167132D01*
X2036825Y185420D01*
X2022856Y185420D01*
X2022856Y165862D01*
X2023059Y159156D01*
X2023668Y152806D01*
X2024684Y146761D01*
X2026056Y141071D01*
X2027834Y135686D01*
X2029968Y130657D01*
X2032507Y125983D01*
X2035403Y121615D01*
X2038654Y117602D01*
X2042312Y113893D01*
X2046274Y110591D01*
X2050542Y107594D01*
X2055215Y104952D01*
X2060193Y102666D01*
X2065528Y100736D01*
X2071116Y99110D01*
X2077059Y97891D01*
X2083358Y96977D01*
X2089912Y96469D01*
X2096770Y96266D01*
X2103628Y96469D01*
X2110232Y96977D01*
X2116531Y97891D01*
X2122525Y99110D01*
X2128215Y100685D01*
X2133549Y102616D01*
X2138629Y104902D01*
X2143353Y107543D01*
X2147722Y110540D01*
X2151786Y113842D01*
X2155444Y117449D01*
X2158796Y121462D01*
X2161743Y125780D01*
X2164334Y130403D01*
X2166569Y135382D01*
X2168398Y140665D01*
X2169820Y146304D01*
X2170887Y152247D01*
X2171496Y158496D01*
X2171700Y165100D01*
X2171700Y202438D01*
G37*
G36*
X2251456Y482092D02*
G01*
X2251456Y464566D01*
X2340152Y437591D01*
X2364181Y430631D01*
X2382774Y424942D01*
X2382774Y424180D01*
X2333752Y409194D01*
X2251456Y384556D01*
X2251456Y367538D01*
X2400300Y415035D01*
X2400300Y434340D01*
G37*
G36*
X2325878Y357632D02*
G01*
X2318867Y357428D01*
X2312111Y356819D01*
X2305659Y355803D01*
X2299512Y354431D01*
X2293721Y352704D01*
X2288184Y350621D01*
X2283002Y348234D01*
X2278176Y345490D01*
X2273655Y342442D01*
X2269490Y339090D01*
X2265680Y335483D01*
X2262276Y331571D01*
X2259177Y327406D01*
X2256536Y323037D01*
X2254250Y318414D01*
X2252319Y313588D01*
X2250846Y308559D01*
X2249779Y303326D01*
X2249119Y297891D01*
X2248916Y292354D01*
X2249322Y285800D01*
X2250389Y279654D01*
X2252167Y273913D01*
X2254402Y268630D01*
X2257094Y263804D01*
X2260142Y259384D01*
X2263495Y255422D01*
X2266950Y251967D01*
X2277872Y261366D01*
X2272131Y267563D01*
X2267610Y274726D01*
X2264714Y282905D01*
X2263648Y292100D01*
X2263902Y297434D01*
X2264714Y302564D01*
X2266086Y307390D01*
X2267915Y311962D01*
X2270302Y316230D01*
X2273147Y320192D01*
X2276449Y323850D01*
X2280259Y327202D01*
X2284476Y330149D01*
X2289149Y332790D01*
X2294229Y335026D01*
X2299766Y336905D01*
X2305659Y338429D01*
X2311958Y339496D01*
X2318613Y340156D01*
X2325624Y340360D01*
X2332634Y340156D01*
X2339340Y339496D01*
X2345639Y338480D01*
X2351582Y337058D01*
X2357120Y335229D01*
X2362250Y333044D01*
X2366975Y330454D01*
X2371242Y327558D01*
X2375103Y324307D01*
X2378456Y320751D01*
X2381351Y316839D01*
X2383739Y312623D01*
X2385618Y308102D01*
X2386990Y303276D01*
X2387803Y298196D01*
X2388108Y292862D01*
X2387803Y287578D01*
X2386990Y282651D01*
X2385618Y277926D01*
X2383688Y273507D01*
X2381250Y269240D01*
X2378354Y265226D01*
X2374950Y261315D01*
X2371090Y257556D01*
X2381504Y248412D01*
X2386380Y252831D01*
X2390648Y257606D01*
X2394305Y262636D01*
X2397302Y268071D01*
X2399690Y273862D01*
X2401417Y280009D01*
X2402484Y286613D01*
X2402840Y293624D01*
X2402636Y299059D01*
X2401976Y304342D01*
X2400909Y309473D01*
X2399487Y314401D01*
X2397607Y319176D01*
X2395321Y323697D01*
X2392680Y328015D01*
X2389632Y332079D01*
X2386228Y335889D01*
X2382469Y339445D01*
X2378303Y342696D01*
X2373833Y345694D01*
X2368956Y348386D01*
X2363774Y350774D01*
X2358237Y352806D01*
X2352395Y354533D01*
X2346248Y355854D01*
X2339746Y356819D01*
X2332990Y357428D01*
G37*
G36*
X2325878Y234950D02*
G01*
X2318867Y234746D01*
X2312111Y234137D01*
X2305659Y233121D01*
X2299512Y231749D01*
X2293721Y230022D01*
X2288184Y227939D01*
X2283002Y225552D01*
X2278176Y222808D01*
X2273655Y219760D01*
X2269490Y216408D01*
X2265680Y212801D01*
X2262276Y208889D01*
X2259177Y204724D01*
X2256536Y200355D01*
X2254250Y195732D01*
X2252319Y190906D01*
X2250846Y185877D01*
X2249779Y180644D01*
X2249119Y175209D01*
X2248916Y169672D01*
X2249322Y163118D01*
X2250389Y156921D01*
X2252167Y151180D01*
X2254402Y145846D01*
X2257094Y140970D01*
X2260142Y136601D01*
X2263495Y132689D01*
X2266950Y129285D01*
X2277872Y138684D01*
X2272131Y144881D01*
X2267610Y152044D01*
X2264714Y160223D01*
X2263648Y169418D01*
X2263902Y174752D01*
X2264714Y179882D01*
X2266086Y184708D01*
X2267915Y189280D01*
X2270302Y193548D01*
X2273147Y197510D01*
X2276449Y201168D01*
X2280259Y204520D01*
X2284476Y207467D01*
X2289149Y210108D01*
X2294229Y212344D01*
X2299766Y214223D01*
X2305659Y215747D01*
X2311958Y216814D01*
X2318613Y217474D01*
X2325624Y217678D01*
X2332634Y217474D01*
X2339340Y216814D01*
X2345639Y215798D01*
X2351582Y214375D01*
X2357120Y212547D01*
X2362250Y210362D01*
X2366975Y207771D01*
X2371242Y204876D01*
X2375103Y201625D01*
X2378456Y198069D01*
X2381351Y194157D01*
X2383739Y189941D01*
X2385618Y185420D01*
X2386990Y180594D01*
X2387803Y175514D01*
X2388108Y170180D01*
X2387803Y164896D01*
X2386990Y159969D01*
X2385618Y155244D01*
X2383688Y150825D01*
X2381250Y146558D01*
X2378354Y142544D01*
X2374950Y138633D01*
X2371090Y134874D01*
X2381504Y125476D01*
X2386380Y129997D01*
X2390648Y134772D01*
X2394305Y139903D01*
X2397302Y145338D01*
X2399690Y151130D01*
X2401417Y157327D01*
X2402484Y163931D01*
X2402840Y170942D01*
X2402636Y176377D01*
X2401976Y181660D01*
X2400909Y186791D01*
X2399487Y191719D01*
X2397607Y196494D01*
X2395321Y201015D01*
X2392680Y205333D01*
X2389632Y209397D01*
X2386228Y213207D01*
X2382469Y216763D01*
X2378303Y220014D01*
X2373833Y223012D01*
X2368956Y225704D01*
X2363774Y228092D01*
X2358237Y230124D01*
X2352395Y231851D01*
X2346248Y233171D01*
X2339746Y234137D01*
X2332990Y234746D01*
G37*
D23*
X1371600Y1347215D02*
G01*
X1371600Y1269237D01*
X1366520Y1253744D01*
X1356105Y1243329D01*
X1340357Y1238250D01*
X1329944Y1238250D01*
X1314450Y1243329D01*
X1304036Y1253744D01*
X1298955Y1269237D01*
X1298955Y1347215D01*
X1259331Y1321307D02*
G01*
X1259331Y1326387D01*
X1254252Y1336802D01*
X1248918Y1342136D01*
X1238504Y1347215D01*
X1217929Y1347215D01*
X1207515Y1342136D01*
X1202181Y1336802D01*
X1197102Y1326387D01*
X1197102Y1315973D01*
X1202181Y1305560D01*
X1212595Y1290065D01*
X1264665Y1238250D01*
X1191768Y1238250D01*
D10*
X1097279Y1189799D02*
G01*
X1097279Y689800D01*
X1465579Y1189799D02*
G01*
X1465579Y689800D01*
X1097279Y689800D02*
G01*
X1465579Y689800D01*
X1097279Y1189799D02*
G01*
X1231900Y1189799D01*
X1333500Y1193800D02*
G01*
X1465579Y1193800D01*
G75*
G01*
X1333500Y1193800D02*
G02*
X1231900Y1189800I-50786J-2360D01*
M02*
